<mxfile host="app.diagrams.net" modified="2023-09-23T22:47:22.055Z" agent="Mozilla/5.0 (Windows NT 10.0; Win64; x64) AppleWebKit/537.36 (KHTML, like Gecko) Chrome/116.0.0.0 Safari/537.36 OPR/102.0.0.0" version="21.8.1" etag="xE-AP0ObINKM9Jz3pPeM" type="github">
  <diagram name="Page-1" id="SAOhAEZPTei8KUtxhsRJ">
    <mxGraphModel>
      <root>
        <mxCell id="0" />
        <mxCell id="1" parent="0" />
      </root>
    </mxGraphModel>
  </diagram>
</mxfile>
